HIERARCHY
ROOT Hips
{
 OFFSET 0.000000 0.000000 0.000000
 CHANNELS 6 Xposition Yposition Zposition Yrotation Xrotation Zrotation
 JOINT Chest
 {
  OFFSET 0.000000 9.910571 -0.011835
  CHANNELS 3 Yrotation Xrotation Zrotation
  JOINT Chest2
  {
   OFFSET 0.000000 10.789473 0.021497
   CHANNELS 3 Yrotation Xrotation Zrotation
   JOINT Chest3
   {
    OFFSET 0.000000 9.748205 0.000000
    CHANNELS 3 Yrotation Xrotation Zrotation
    JOINT Chest4
    {
     OFFSET 0.000000 9.748205 0.000000
     CHANNELS 3 Yrotation Xrotation Zrotation
     JOINT Neck
     {
      OFFSET 0.000000 13.998479 0.000000
      CHANNELS 3 Yrotation Xrotation Zrotation
      JOINT Head
      {
       OFFSET 0.000000 9.082285 0.051121
       CHANNELS 3 Yrotation Xrotation Zrotation
       End Site
       {
        OFFSET 0.000000 17.246134 0.026702
       }
      }
     }
     JOINT RightCollar
     {
      OFFSET -3.284495 7.824262 0.000000
      CHANNELS 3 Yrotation Xrotation Zrotation
      JOINT RightShoulder
      {
       OFFSET -15.534540 0.000000 0.000000
       CHANNELS 3 Yrotation Xrotation Zrotation
       JOINT RightElbow
       {
        OFFSET 0.000000 -28.251216 0.000000
        CHANNELS 3 Yrotation Xrotation Zrotation
        JOINT RightWrist
        {
         OFFSET 0.000000 -23.418114 0.012537
         CHANNELS 3 Yrotation Xrotation Zrotation
         End Site
         {
          OFFSET 0.000000 -17.723959 0.000000
         }
        }
       }
      }
     }
     JOINT LeftCollar
     {
      OFFSET 3.284495 7.824262 0.000000
      CHANNELS 3 Yrotation Xrotation Zrotation
      JOINT LeftShoulder
      {
       OFFSET 15.534540 0.000000 0.000000
       CHANNELS 3 Yrotation Xrotation Zrotation
       JOINT LeftElbow
       {
        OFFSET 0.000000 -28.251216 0.000000
        CHANNELS 3 Yrotation Xrotation Zrotation
        JOINT LeftWrist
        {
         OFFSET 0.000000 -23.418114 0.012537
         CHANNELS 3 Yrotation Xrotation Zrotation
         End Site
         {
          OFFSET 0.000000 -17.723959 0.000000
         }
        }
       }
      }
     }
    }
   }
  }
 }
 JOINT RightHip
 {
  OFFSET -8.142657 0.057990 0.005917
  CHANNELS 3 Yrotation Xrotation Zrotation
  JOINT RightKnee
  {
   OFFSET 0.000000 -49.716894 0.008478
   CHANNELS 3 Yrotation Xrotation Zrotation
   JOINT RightAnkle
   {
    OFFSET 0.000000 -43.994153 0.004166
    CHANNELS 3 Yrotation Xrotation Zrotation
    JOINT RightToe
    {
     OFFSET 0.000000 -7.619154 17.822051
     CHANNELS 3 Yrotation Xrotation Zrotation
     End Site
     {
      OFFSET 0.000000 -1.595627 7.159905
     }
    }
   }
  }
 }
 JOINT LeftHip
 {
  OFFSET 8.142657 0.057990 0.005917
  CHANNELS 3 Yrotation Xrotation Zrotation
  JOINT LeftKnee
  {
   OFFSET 0.000000 -49.716894 0.008478
   CHANNELS 3 Yrotation Xrotation Zrotation
   JOINT LeftAnkle
   {
    OFFSET 0.000000 -43.994153 0.004166
    CHANNELS 3 Yrotation Xrotation Zrotation
    JOINT LeftToe
    {
     OFFSET 0.000000 -7.619154 17.822051
     CHANNELS 3 Yrotation Xrotation Zrotation
     End Site
     {
      OFFSET 0.000000 -1.595627 7.159905
     }
    }
   }
  }
 }
}
MOTION
Frames: 12
Frame Time: 0.008333
496.631271 57.043188 374.111112 -55.210011 -54.906153 3.610323 -1.255571 21.578098 -2.864474 -0.414817 9.597036 -1.223377 -0.414817 9.597036 -1.223377 -0.291010 7.198642 -0.908806 -5.896050 16.594109 -1.837571 -10.286369 -5.303506 -1.321934 -0.327712 10.138633 12.617601 25.232092 -15.913562 -23.297615 -12.283150 -45.230316 38.971425 10.891352 -8.985035 -13.962316 -2.080293 13.593827 -11.269387 -9.892529 -20.353867 20.532334 29.472323 -68.595289 -24.146138 -34.074456 15.694770 -17.515023 -13.300333 -31.177812 1.330314 -30.715349 70.985303 -43.492207 0.445025 9.986351 -0.967873 -0.008146 0.048605 -0.004934 12.997958 -30.748820 10.378840 26.353585 71.575962 17.388609 6.016140 9.078776 7.287881 -0.003767 -0.071723 -0.020183
496.635045 57.046947 374.111347 -55.208740 -54.916262 3.614173 -1.256898 21.586698 -2.861743 -0.417380 9.601980 -1.223074 -0.417380 9.601980 -1.223074 -0.292922 7.202355 -0.908533 -5.875774 16.580048 -1.825034 -10.253703 -5.329580 -1.304879 -0.330243 10.122683 12.612191 25.205879 -15.918099 -23.285890 -12.281634 -45.247749 38.977828 10.884925 -8.987902 -13.925396 -2.128638 13.589325 -11.280666 -9.869535 -20.365484 20.542406 29.430304 -68.629895 -24.045098 -34.056225 15.647874 -17.540133 -13.299366 -31.166782 1.320247 -30.683747 70.982668 -43.453965 0.439435 9.997352 -0.983821 0.005100 0.043531 0.001947 13.047909 -30.730251 10.344816 26.263290 71.556070 17.329680 6.089633 9.066651 7.314076 -0.009483 -0.057741 -0.020748
496.638914 57.050859 374.111824 -55.204018 -54.931010 3.615979 -1.259589 21.594137 -2.863873 -0.419654 9.605146 -1.222820 -0.419654 9.605146 -1.222820 -0.294621 7.204734 -0.908303 -5.854049 16.563962 -1.805540 -10.220892 -5.358990 -1.275313 -0.335464 10.113852 12.608399 25.195994 -15.917610 -23.276670 -12.283007 -45.261751 38.973181 10.892713 -8.995938 -13.888335 -2.156696 13.582090 -11.281083 -9.855367 -20.368914 20.543035 29.347721 -68.601465 -23.932547 -34.021324 15.559053 -17.513725 -13.304221 -31.152108 1.312805 -30.674445 70.977876 -43.446202 0.442041 10.004553 -0.991747 0.015365 0.039186 0.006111 13.098189 -30.708175 10.315929 26.204739 71.538190 17.296304 6.129216 9.058580 7.344857 -0.016016 -0.047886 -0.023684
496.642100 57.056282 374.113383 -55.204798 -54.944548 3.625293 -1.259794 21.604904 -2.868832 -0.421478 9.610081 -1.223813 -0.421478 9.610081 -1.223813 -0.295959 7.208440 -0.909012 -5.831101 16.546664 -1.782152 -10.187242 -5.390430 -1.238887 -0.337325 10.099337 12.603429 25.182657 -15.916769 -23.269953 -12.271097 -45.278894 38.977917 10.890469 -8.992579 -13.868353 -2.188237 13.570652 -11.274567 -9.826519 -20.374500 20.529765 29.326656 -68.628241 -23.866726 -33.984110 15.505548 -17.548728 -13.297165 -31.140884 1.300448 -30.692615 70.971368 -43.461811 0.432654 10.012128 -0.998487 0.022689 0.032367 0.008709 13.144786 -30.682281 10.289275 26.161630 71.518774 17.264593 6.203766 9.035387 7.384168 -0.019072 -0.035167 -0.025227
496.647767 57.060436 374.115419 -55.197579 -54.959550 3.632087 -1.266574 21.610576 -2.876785 -0.422993 9.614372 -1.226215 -0.422993 9.614372 -1.226215 -0.297044 7.211663 -0.910780 -5.810825 16.525530 -1.756305 -10.159564 -5.428698 -1.196707 -0.338606 10.076766 12.598405 25.179767 -15.905741 -23.260841 -12.260359 -45.283792 38.970163 10.899154 -8.995666 -13.847282 -2.200897 13.558441 -11.262204 -9.803693 -20.371819 20.511126 29.297295 -68.582328 -23.817366 -33.952639 15.407612 -17.516657 -13.296692 -31.129349 1.285156 -30.688101 70.969038 -43.461207 0.412612 10.018645 -1.004440 0.028786 0.028080 0.011578 13.184856 -30.660621 10.271494 26.136735 71.507423 17.244871 6.157916 9.054407 7.409475 -0.026187 -0.040382 -0.027714
496.652519 57.065899 374.115199 -55.178327 -54.975968 3.622395 -1.270382 21.620351 -2.876738 -0.422323 9.619953 -1.226620 -0.422323 9.619953 -1.226620 -0.296524 7.215847 -0.911087 -5.794160 16.505398 -1.728634 -10.139210 -5.464826 -1.149945 -0.352769 10.055024 12.588261 25.194416 -15.885998 -23.249801 -12.254721 -45.291236 38.958682 10.901595 -8.994157 -13.834984 -2.219346 13.539238 -11.251461 -9.788568 -20.357536 20.487465 29.314616 -68.598715 -23.785991 -33.929775 15.357501 -17.534607 -13.308616 -31.109170 1.277185 -30.675172 70.958565 -43.452688 0.408002 10.023877 -1.008562 0.033541 0.027656 0.014325 13.206566 -30.639709 10.267250 26.150650 71.491225 17.264145 6.077342 9.079232 7.411976 -0.028740 -0.044168 -0.020765
496.650258 57.069905 374.112228 -55.170996 -54.996932 3.613247 -1.265192 21.629589 -2.869868 -0.422586 9.625658 -1.227708 -0.422586 9.625658 -1.227708 -0.296691 7.220128 -0.911890 -5.777684 16.483297 -1.698547 -10.120150 -5.504427 -1.098503 -0.362555 10.028401 12.577580 25.219523 -15.867390 -23.240889 -12.259920 -45.283550 38.954585 10.910425 -8.994594 -13.828210 -2.227225 13.514340 -11.238194 -9.764582 -20.345474 20.461156 29.293407 -68.546737 -23.752248 -33.923840 15.272902 -17.518034 -13.322016 -31.089209 1.283629 -30.681161 70.956230 -43.465541 0.406510 10.037128 -1.010291 0.035566 0.016778 0.014494 13.224183 -30.620412 10.279192 26.179147 71.486106 17.287267 6.156277 9.044393 7.429853 -0.018200 -0.036032 -0.003187
496.649387 57.071684 374.108427 -55.165908 -55.010355 3.611951 -1.267585 21.640031 -2.873153 -0.421505 9.632715 -1.229634 -0.421505 9.632715 -1.229634 -0.295836 7.225420 -0.913340 -5.764440 16.462327 -1.669259 -10.106775 -5.541846 -1.047473 -0.361242 9.993472 12.564641 25.243237 -15.840304 -23.226934 -12.267978 -45.278877 38.957590 10.912375 -9.004126 -13.832982 -2.232233 13.483015 -11.224066 -9.734920 -20.324113 20.439876 29.339760 -68.554518 -23.767661 -33.940587 15.232219 -17.556719 -13.326277 -31.076558 1.288585 -30.700569 70.953470 -43.489784 0.394750 10.039739 -1.015504 0.042255 0.014549 0.017991 13.238402 -30.609228 10.288230 26.197099 71.486357 17.297727 6.129153 9.043742 7.432812 -0.023567 -0.037161 0.005737
496.650019 57.073655 374.104856 -55.167137 -55.033266 3.621206 -1.265215 21.653968 -2.878776 -0.418027 9.640607 -1.230926 -0.418027 9.640607 -1.230926 -0.293195 7.231333 -0.914353 -5.755260 16.440315 -1.638504 -10.101521 -5.580909 -0.992214 -0.372039 9.954522 12.556236 25.281971 -15.812226 -23.218168 -12.291644 -45.263440 38.960896 10.911058 -9.011111 -13.836362 -2.242418 13.450398 -11.215552 -9.722530 -20.301942 20.425790 29.342202 -68.507538 -23.752994 -33.974480 15.157330 -17.546332 -13.327398 -31.053188 1.283715 -30.699406 70.948700 -43.497827 0.402997 10.040757 -1.015905 0.048226 0.016142 0.020948 13.252075 -30.583629 10.295520 26.207105 71.484855 17.294168 6.090538 9.044182 7.433577 -0.034824 -0.036617 0.012913
496.650671 57.073305 374.101656 -55.163623 -55.046466 3.630187 -1.267156 21.671689 -2.887765 -0.414670 9.648947 -1.232956 -0.414670 9.648947 -1.232956 -0.290633 7.237582 -0.915915 -5.745862 16.415480 -1.605779 -10.096687 -5.625072 -0.933179 -0.385183 9.915801 12.553860 25.334182 -15.777842 -23.219499 -12.338254 -45.252869 38.977208 10.901207 -9.012440 -13.855460 -2.252431 13.409137 -11.207227 -9.709835 -20.277154 20.414295 29.375790 -68.515590 -23.745789 -34.012577 15.131120 -17.586169 -13.330169 -31.041685 1.277316 -30.687043 70.955141 -43.497953 0.398433 10.031763 -1.012597 0.048808 0.023005 0.021796 13.264714 -30.568454 10.298216 26.230300 71.478070 17.296933 6.088899 9.039000 7.440610 -0.040056 -0.036379 0.022068
496.648264 57.073026 374.097364 -55.174355 -55.069075 3.647199 -1.262721 21.689950 -2.891197 -0.412003 9.656963 -1.233361 -0.412003 9.656963 -1.233361 -0.288614 7.243589 -0.916252 -5.738960 16.390420 -1.574456 -10.096017 -5.669630 -0.875833 -0.397416 9.881096 12.541439 25.386450 -15.748854 -23.221786 -12.392031 -45.238370 39.000492 10.887517 -9.015165 -13.863185 -2.256975 13.376484 -11.209709 -9.707490 -20.254594 20.414701 29.378145 -68.469049 -23.737230 -34.055315 15.068274 -17.571445 -13.331396 -31.025205 1.276025 -30.700847 70.961984 -43.528433 0.420479 10.028656 -1.008810 0.050093 0.022275 0.024994 13.290512 -30.541470 10.299275 26.224364 71.470009 17.284863 6.145680 9.009757 7.449071 -0.038169 -0.027435 0.029396
496.649488 57.072730 374.094397 -55.189611 -55.088513 3.675004 -1.256120 21.709036 -2.899257 -0.407414 9.665531 -1.232953 -0.407414 9.665531 -1.232953 -0.285167 7.250006 -0.916010 -5.739142 16.367465 -1.544612 -10.107912 -5.710054 -0.818853 -0.430287 9.851155 12.526108 25.450004 -15.717740 -23.215299 -12.455421 -45.220849 39.012918 10.885730 -9.015969 -13.867522 -2.269847 13.350786 -11.212420 -9.712613 -20.238354 20.419184 29.417080 -68.467598 -23.735380 -34.106716 15.034178 -17.606345 -13.320536 -31.014638 1.265048 -30.707513 70.967188 -43.544637 0.402870 10.032060 -1.017219 0.052504 0.019869 0.029847 13.327280 -30.512601 10.288054 26.177436 71.459876 17.238852 6.131851 9.005752 7.450585 -0.044541 -0.022633 0.028900
